<svg xmlns="http://www.w3.org/2000/svg" viewBox="0 0 256 256"><path d="M182.26,6.92H73.74A66.9,66.9,0,0,0,6.92,73.74V182.26a66.9,66.9,0,0,0,66.82,66.82H182.26a66.9,66.9,0,0,0,66.82-66.82V73.74A66.84,66.84,0,0,0,182.26,6.92Zm0,220.67H73.74a45.36,45.36,0,0,1-45.33-45.33V73.74A45.42,45.42,0,0,1,73.74,28.37H182.26a45.37,45.37,0,0,1,45.33,45.37V182.26h0A45.36,45.36,0,0,1,182.3,227.59ZM128,65.6A62.4,62.4,0,1,0,190.4,128,62.4,62.4,0,0,0,128,65.6ZM128,169a40.91,40.91,0,1,1,40.91-40.91A40.92,40.92,0,0,1,128,169ZM192.79,47.62a15.64,15.64,0,1,0,15.63,15.64A15.64,15.64,0,0,0,192.79,47.62Z"/></svg>