<svg xmlns="http://www.w3.org/2000/svg" viewBox="0 0 256 256"><path d="M248.88,56.13a78.32,78.32,0,0,1-28.1,7.49,49.17,49.17,0,0,0,22.48-28.09,92.43,92.43,0,0,1-31.84,11.24,59.13,59.13,0,0,0-35.59-13.11,50,50,0,0,0-50.58,48.7,23.93,23.93,0,0,0,1.87,11.24A136.58,136.58,0,0,1,26,43a53.15,53.15,0,0,0-7.49,24.33A51.5,51.5,0,0,0,41,108.59,50,50,0,0,1,18.48,103h0a50.14,50.14,0,0,0,39.34,48.7c-3.75,0-7.49,1.87-13.11,1.87H35.34a48.94,48.94,0,0,0,46.83,33.7,110.85,110.85,0,0,1-61.82,20.63H9.12A146.48,146.48,0,0,0,84,230.34c89.92,0,140.49-74.92,140.49-140.48V84.23a174.34,174.34,0,0,0,24.35-28.1Z"/></svg>