<svg xmlns="http://www.w3.org/2000/svg" viewBox="0 0 256 256"><defs><style>.a{fill-rule:evenodd;}</style></defs><path class="a" d="M127.75,8.46C59.34,8.46,6.33,58.57,6.33,126.24c0,35.4,14.51,66,38.14,87.12a9.84,9.84,0,0,1,3.27,6.92l.66,21.59A9.73,9.73,0,0,0,62,250.47l24.09-10.62a9.62,9.62,0,0,1,6.47-.49A132.26,132.26,0,0,0,127.75,244c68.41,0,121.42-50.1,121.42-117.78S196.16,8.46,127.75,8.46Zm72.9,90.62L165,155.66a18.22,18.22,0,0,1-26.33,4.86l-28.37-21.28a7.29,7.29,0,0,0-8.77,0L63.2,168.34c-5.1,3.88-11.8-2.25-8.35-7.67l35.67-56.58a18.23,18.23,0,0,1,26.33-4.87l28.37,21.28a7.29,7.29,0,0,0,8.77,0L192.3,91.41C197.4,87.52,204.1,93.65,200.65,99.08Z"/></svg>