<svg xmlns="http://www.w3.org/2000/svg" viewBox="0 0 256 256"><path d="M236.89,152.53v83.92H190.21v-78.3c0-19.66-6.75-33.09-23.64-33.09-12.91,0-20.58,9-23.95,17.8-1.23,3.12-1.55,7.47-1.55,11.86v81.73H94.37s.63-132.62,0-146.35h46.7v20.74c-.1.16-.23.32-.31.48h.31v-.48c6.2-10,17.27-24.18,42.07-24.18,30.73,0,53.75,20.92,53.75,65.87ZM45.53,19.55c-16,0-26.42,10.92-26.42,25.28,0,14.05,10.14,25.3,25.8,25.3h.31c16.28,0,26.41-11.25,26.41-25.3-.31-14.36-10.13-25.28-26.1-25.28ZM21.88,236.45H68.56V90.1H21.88Zm0,0"/></svg>