<svg xmlns="http://www.w3.org/2000/svg" viewBox="0 0 256 256"><path d="M179,24.34A114.68,114.68,0,0,0,25.8,179.14L13.56,238.27A4.46,4.46,0,0,0,19,243.53l58-13.69A114.74,114.74,0,0,0,179,24.34Zm12.52,166.28A90.09,90.09,0,0,1,88,207.57l-8.1-4L44.4,212l7.47-36.3-3.94-7.82a88.45,88.45,0,0,1-9.74-40.79,89.83,89.83,0,1,1,153.37,63.54Zm-5.79-37.73a8.3,8.3,0,0,0-2.11-.94l0,0-22.2-6.37a8.45,8.45,0,0,0-8.23,2.14l-5.46,5.53a8,8,0,0,1-8.78,1.87,118.56,118.56,0,0,1-38.22-33.75,8,8,0,0,1,.62-9l4.77-6.16a8.26,8.26,0,0,0,1-8.44L97.86,76.64a8.28,8.28,0,0,0-12.94-3A37.32,37.32,0,0,0,70.47,95.75c-1.59,15.56,5.12,35.2,30.36,58.78,29.18,27.22,52.55,30.85,67.75,27.11,8.65-2.07,15.5-10.42,19.85-17.37A8.26,8.26,0,0,0,185.77,152.89Z"/></svg>